:FULLY-SPECIFIED
:FORCE-ALL-JOINTS-BE-3DOF
:DEGREES
577
root 6.10519 16.3952 -3.76646 -86.7262 87.5288 -92.1746
lfemur -18.67 5.48467 -19.7656
ltibia 45.412 -0 0
lfoot -30.636 9.27551 -0.160343
ltoes 2.52679 -0 0
rfemur -47.0827 -8.15474 14.7754
rtibia 56.8529 -0 0
rfoot 7.68815 9.22435 0.000700401
rtoes -21.3824 0 0
lowerback 4.80603 -1.08063 -4.9859
upperback 1.74245 -1.60992 2.00008
thorax -0.680445 -0.817214 4.94681
lowerneck -6.05253 -12.5913 -3.5436
upperneck 12.2225 -17.3054 5.82441
head 5.51638 -8.23817 1.12634
lclavicle -2.92379e-15 1.49089e-15 4.16319e-32
lhumerus -27.9798 -29.1665 89.9658
lradius 53.8365 -0 0
lwrist 21.3786 0 0
lhand -14.6885 -1.94321 0.106205
lfingers 7.12502 -0 0
lthumb 11.4428 27.4227 0.00343889
rclavicle -2.92379e-15 1.49089e-15 4.16319e-32
rhumerus 16.3012 21.9393 -73.5834
rradius 127.642 -0 0
rwrist -34.1249 0 0
rhand -21.5359 -18.5817 0.233143
rfingers 7.12502 -0 0
rthumb 4.83806 -48.1913 0.303952
578
root 6.11403 16.3943 -3.74111 -86.2558 87.5101 -91.699
lfemur -18.5756 5.80633 -19.7133
ltibia 45.3813 -0 0
lfoot -30.7079 9.50175 -0.151635
ltoes 2.363 -0 0
rfemur -46.9327 -8.36721 14.8467
rtibia 56.6859 -0 0
rfoot 7.68464 9.20405 0.000662422
rtoes -21.4507 0 0
lowerback 4.78047 -1.09196 -5.03477
upperback 1.758 -1.62593 2.00505
thorax -0.647417 -0.826588 4.98003
lowerneck -6.01097 -12.621 -3.56019
upperneck 12.2536 -17.3535 5.87568
head 5.52686 -8.25838 1.14101
lclavicle -2.95748e-15 1.61678e-15 3.93745e-32
lhumerus -27.7358 -29.0484 89.6338
lradius 53.8025 -0 0
lwrist 21.602 0 0
lhand -14.9984 -1.97789 0.100431
lfingers 7.12502 -0 0
lthumb 11.1453 27.4216 0.00325198
rclavicle -2.95748e-15 1.61678e-15 3.93745e-32
rhumerus 16.8682 21.5751 -73.5257
rradius 128.035 -0 0
rwrist -34.8391 0 0
rhand -21.8726 -18.6516 0.220461
rfingers 7.12502 -0 0
rthumb 4.51403 -48.2861 0.28742
579
root 6.12287 16.3934 -3.71577 -85.7926 87.4914 -91.2305
lfemur -18.4808 6.1279 -19.6605
ltibia 45.3506 -0 0
lfoot -30.7798 9.72798 -0.142644
ltoes 2.19921 -0 0
rfemur -46.7828 -8.57987 14.9175
rtibia 56.5189 -0 0
rfoot 7.68113 9.18375 0.000623198
rtoes -21.5191 0 0
lowerback 4.75492 -1.10332 -5.08365
upperback 1.77354 -1.64194 2.01002
thorax -0.614395 -0.835981 5.01324
lowerneck -5.96941 -12.6507 -3.5768
upperneck 12.2846 -17.4016 5.92693
head 5.53733 -8.27859 1.15569
lclavicle -2.99116e-15 1.74268e-15 3.70431e-32
lhumerus -27.4929 -28.9291 89.3027
lradius 53.7684 -0 0
lwrist 21.8254 0 0
lhand -15.3083 -2.01254 0.0944701
lfingers 7.12502 -0 0
lthumb 10.8478 27.4204 0.00305899
rclavicle -2.99116e-15 1.74268e-15 3.70431e-32
rhumerus 17.4334 21.2104 -73.472
rradius 128.428 -0 0
rwrist -35.5534 0 0
rhand -22.2093 -18.7215 0.207368
rfingers 7.12502 -0 0
rthumb 4.19002 -48.3808 0.270352
580
root 6.13171 16.3926 -3.69043 -85.3362 87.4724 -90.769
lfemur -18.3857 6.44939 -19.6071
ltibia 45.32 -0 0
lfoot -30.8516 9.9542 -0.133369
ltoes 2.03541 -0 0
rfemur -46.6331 -8.79271 14.9878
rtibia 56.3519 -0 0
rfoot 7.67761 9.16345 0.00058273
rtoes -21.5875 0 0
lowerback 4.72938 -1.11469 -5.13252
upperback 1.78909 -1.65795 2.01498
thorax -0.581377 -0.845393 5.04645
lowerneck -5.92783 -12.6805 -3.59343
upperneck 12.3156 -17.4498 5.97817
head 5.5478 -8.2988 1.17036
lclavicle -3.02484e-15 1.86858e-15 3.46377e-32
lhumerus -27.251 -28.8086 88.9726
lradius 53.7344 -0 0
lwrist 22.0489 0 0
lhand -15.6181 -2.04715 0.0883215
lfingers 7.12502 -0 0
lthumb 10.5503 27.4192 0.00285994
rclavicle -3.02484e-15 1.86858e-15 3.46377e-32
rhumerus 17.9968 20.8452 -73.4223
rradius 128.82 -0 0
rwrist -36.2677 0 0
rhand -22.546 -18.7913 0.193865
rfingers 7.12502 -0 0
rthumb 3.86604 -48.4754 0.252749
581
root 6.14056 16.3917 -3.66508 -84.8868 87.4533 -90.3143
lfemur -18.2902 6.77078 -19.5531
ltibia 45.2893 -0 0
lfoot -30.9234 10.1804 -0.12381
ltoes 1.87162 -0 0
rfemur -46.4836 -9.00573 15.0576
rtibia 56.185 -0 0
rfoot 7.6741 9.14315 0.000541016
rtoes -21.6559 0 0
lowerback 4.70385 -1.12609 -5.18138
upperback 1.80464 -1.67396 2.01994
thorax -0.548366 -0.854825 5.07965
lowerneck -5.88623 -12.7101 -3.61009
upperneck 12.3466 -17.498 6.02939
head 5.55827 -8.31902 1.18502
lclavicle -3.05853e-15 1.99447e-15 3.21583e-32
lhumerus -27.0103 -28.6869 88.6435
lradius 53.7003 -0 0
lwrist 22.2723 0 0
lhand -15.928 -2.08173 0.0819857
lfingers 7.12502 -0 0
lthumb 10.2528 27.4181 0.00265482
rclavicle -3.05853e-15 1.99447e-15 3.21583e-32
rhumerus 18.5586 20.4795 -73.3765
rradius 129.213 -0 0
rwrist -36.982 0 0
rhand -22.8827 -18.861 0.179951
rfingers 7.12502 -0 0
rthumb 3.54209 -48.5699 0.234611
